<?xml version="1.0" encoding="UTF-8" standalone="no"?>
<svg
   xmlns:dc="http://purl.org/dc/elements/1.1/"
   xmlns:cc="http://creativecommons.org/ns#"
   xmlns:rdf="http://www.w3.org/1999/02/22-rdf-syntax-ns#"
   xmlns:svg="http://www.w3.org/2000/svg"
   xmlns="http://www.w3.org/2000/svg"
   xmlns:sodipodi="http://sodipodi.sourceforge.net/DTD/sodipodi-0.dtd"
   xmlns:inkscape="http://www.inkscape.org/namespaces/inkscape"
   width="600pt"
   height="600pt"
   viewBox="0 0 600 600"
   version="1.1"
   id="svg2"
   inkscape:version="0.48.4 r9939"
   sodipodi:docname="kotek_wektorek.svg">
  <metadata
     id="metadata28">
    <rdf:RDF>
      <cc:Work
         rdf:about="">
        <dc:format>image/svg+xml</dc:format>
        <dc:type
           rdf:resource="http://purl.org/dc/dcmitype/StillImage" />
        <dc:title />
      </cc:Work>
    </rdf:RDF>
  </metadata>
  <defs
     id="defs26" />
  <sodipodi:namedview
     pagecolor="#ffffff"
     bordercolor="#666666"
     borderopacity="1"
     objecttolerance="10"
     gridtolerance="10"
     guidetolerance="10"
     inkscape:pageopacity="0"
     inkscape:pageshadow="2"
     inkscape:window-width="1680"
     inkscape:window-height="1021"
     id="namedview24"
     showgrid="false"
     inkscape:zoom="1.7800235"
     inkscape:cx="385.61374"
     inkscape:cy="461.50416"
     inkscape:window-x="1680"
     inkscape:window-y="0"
     inkscape:window-maximized="1"
     inkscape:current-layer="svg2" />
  <path
     fill="#f8fbf5"
     d=" M 247.31 10.08 C 255.28 7.92 263.35 10.97 270.63 14.05 C 277.32 17.30 283.45 21.59 290.21 24.72 C 294.60 27.05 299.77 26.61 304.54 26.13 C 310.42 25.30 315.50 22.02 320.83 19.63 C 325.53 17.49 329.76 14.01 335.03 13.33 C 342.79 11.69 350.99 13.48 357.88 17.23 C 368.32 24.00 373.84 36.75 373.70 48.95 C 373.63 56.99 374.40 65.01 374.79 73.04 C 376.41 86.33 378.48 99.57 380.09 112.87 C 381.04 121.15 384.22 129.05 388.94 135.89 C 393.69 144.29 400.49 151.34 404.93 159.93 C 408.50 166.46 412.48 172.84 414.78 179.96 C 418.15 190.76 423.17 201.09 424.87 212.37 C 428.46 227.35 429.34 242.74 431.03 257.99 C 432.05 269.77 432.25 281.62 434.08 293.31 C 435.07 303.52 436.22 313.76 435.50 324.03 C 435.42 328.32 433.80 332.74 435.42 336.93 C 437.99 343.63 442.25 349.64 447.78 354.23 C 460.36 367.57 468.48 384.25 478.72 399.30 C 483.28 407.08 487.95 414.81 492.67 422.50 C 497.48 429.38 501.18 436.94 504.76 444.51 C 506.50 448.11 507.78 451.91 508.60 455.83 C 509.66 460.87 511.77 465.75 511.64 470.99 C 512.04 479.83 510.16 488.52 508.49 497.14 C 505.37 510.78 501.74 524.29 498.07 537.79 C 496.28 544.31 493.46 550.47 491.03 556.76 C 485.78 570.02 474.32 580.65 460.62 584.67 C 453.37 587.22 445.74 588.76 438.03 588.59 C 387.68 588.62 337.34 588.62 287.00 588.59 C 280.64 588.32 274.35 589.44 268.00 589.36 C 232.00 589.32 195.99 589.40 159.99 589.32 C 151.52 588.57 142.85 588.97 134.63 586.45 C 122.69 583.57 111.66 576.58 104.27 566.73 C 93.30 551.52 90.18 532.56 84.94 514.96 C 81.98 503.11 78.55 491.28 77.59 479.04 C 77.11 470.77 77.78 462.18 81.40 454.61 C 83.86 449.75 84.44 444.13 87.46 439.54 C 90.60 434.84 92.12 429.21 95.77 424.82 C 102.42 416.26 107.57 406.69 113.67 397.76 C 118.00 392.78 120.23 386.48 124.10 381.19 C 127.80 375.83 130.64 369.90 134.77 364.82 C 139.26 358.71 145.39 353.83 148.89 347.01 C 151.41 342.27 153.94 337.36 154.52 331.95 C 156.32 318.16 158.63 304.46 160.45 290.68 C 161.92 284.33 162.84 277.87 164.20 271.50 C 166.44 262.96 168.81 254.44 171.78 246.12 C 176.51 226.55 178.53 206.21 186.10 187.41 C 188.66 181.17 191.92 175.25 194.90 169.21 C 199.16 157.16 204.95 145.59 207.43 132.95 C 208.25 128.19 209.74 123.58 210.45 118.80 C 212.46 106.00 213.02 92.98 216.17 80.37 C 217.68 74.55 218.39 68.58 219.47 62.67 C 221.20 53.18 221.20 43.41 223.75 34.05 C 227.38 23.07 235.46 12.60 247.31 10.08 Z"
     id="path6" />
  <path
     fill="#020202"
     d=" M 238.18 37.10 C 239.64 30.55 243.62 23.01 250.98 22.08 C 257.20 20.83 262.95 24.65 267.00 28.99 C 270.75 32.27 273.26 36.77 277.45 39.56 C 282.11 43.24 288.36 43.26 294.01 43.27 C 301.41 43.12 309.07 44.80 316.27 42.42 C 324.28 39.30 328.82 31.17 336.56 27.57 C 341.80 24.73 349.11 25.13 353.18 29.82 C 356.85 33.54 357.68 38.96 358.05 43.96 C 358.21 56.38 355.44 68.99 358.62 81.24 C 361.55 91.56 362.68 102.28 363.05 112.97 C 363.27 121.69 365.44 130.26 368.78 138.28 C 371.68 145.20 377.27 150.36 382.32 155.71 C 386.51 160.95 390.70 166.32 393.29 172.57 C 398.12 183.39 403.85 193.92 406.76 205.49 C 408.64 212.40 409.24 219.56 410.64 226.57 C 415.43 247.07 413.22 268.38 417.20 289.01 C 419.42 299.53 419.97 310.30 419.63 321.03 C 419.88 331.48 417.84 341.76 415.90 351.98 C 423.61 354.47 430.79 358.72 436.40 364.60 C 442.48 370.45 446.41 378.02 450.79 385.13 C 461.40 402.22 471.85 419.41 482.49 436.47 C 486.49 443.02 491.06 449.36 493.42 456.74 C 496.30 465.52 497.20 475.06 495.36 484.16 C 491.60 499.63 487.28 514.97 483.46 530.44 C 481.60 536.95 480.35 543.65 477.94 550.01 C 473.74 560.53 464.17 568.70 453.16 571.30 C 446.86 572.63 440.39 572.35 434.00 572.36 C 377.32 572.35 320.63 572.38 263.95 572.34 C 260.64 572.26 257.36 572.77 254.05 572.75 C 218.69 572.73 183.32 572.73 147.95 572.75 C 141.05 572.68 134.02 571.49 127.95 568.06 C 121.24 564.33 115.76 558.39 112.62 551.38 C 109.81 544.65 108.37 537.48 106.40 530.48 C 102.53 516.74 99.00 502.90 95.00 489.19 C 91.12 475.55 92.79 460.30 100.03 448.04 C 116.13 423.13 132.13 398.15 148.08 373.15 C 153.55 365.05 161.24 358.67 169.91 354.24 C 168.61 339.13 171.67 324.08 174.60 309.33 C 175.62 299.12 175.99 288.75 179.15 278.90 C 181.76 270.18 182.61 260.90 186.64 252.64 C 189.41 247.13 191.10 241.07 191.39 234.91 C 191.79 226.61 193.76 218.50 195.21 210.35 C 196.54 199.39 202.73 189.95 207.15 180.07 C 213.44 169.10 217.80 157.12 220.74 144.84 C 222.77 136.17 227.41 128.13 227.59 119.06 C 227.90 104.60 229.33 89.99 234.11 76.25 C 238.28 63.59 236.04 50.07 238.18 37.10 Z"
     id="path8" />
  <path
     fill="#f8fbf5"
     d=" M 266.35 98.32 C 267.40 96.20 269.82 97.29 271.40 98.05 C 270.51 99.99 268.02 101.59 268.84 103.96 C 269.21 105.90 270.02 107.70 271.00 109.41 C 272.34 108.93 273.85 108.78 275.07 107.99 C 276.24 106.12 277.11 104.10 278.19 102.18 C 279.30 102.39 280.42 102.58 281.55 102.74 C 283.01 107.30 278.92 110.41 275.48 112.44 C 272.39 113.50 268.97 112.64 266.70 110.31 C 262.78 107.64 263.08 101.40 266.35 98.32 Z"
     id="path10" />
  <path
     fill="#f8fbf5"
     d=" M 325.07 100.79 C 326.71 100.70 328.84 100.51 329.45 102.48 C 330.88 106.18 330.85 111.68 327.08 113.98 C 323.63 114.86 319.52 115.92 316.42 113.54 C 315.13 111.45 314.18 109.17 313.12 106.96 C 313.87 106.59 315.39 105.84 316.15 105.46 C 318.58 107.24 320.14 109.80 321.81 112.25 C 323.14 111.08 324.53 109.94 325.60 108.51 C 326.13 105.95 325.07 103.37 325.07 100.79 Z"
     id="path12" />
  <path
     fill="#f8fbf5"
     d=" M 295.96 120.12 C 296.87 118.43 297.34 115.46 299.89 115.90 C 301.59 119.03 301.07 122.90 303.13 125.90 C 304.82 128.64 304.05 132.10 302.66 134.79 C 298.69 135.22 294.30 135.34 291.46 132.02 C 290.91 127.43 294.60 124.19 295.96 120.12 Z"
     id="path14" />
  <path
     fill="#f8fbf5"
     d=" M 276.34 182.39 C 281.25 181.71 286.09 179.96 291.11 180.72 C 297.25 180.26 303.43 180.70 309.57 180.15 C 309.63 181.38 309.69 182.61 309.76 183.84 C 310.73 183.69 311.71 183.54 312.69 183.39 C 311.90 184.76 311.33 186.23 310.80 187.72 C 312.75 188.80 313.62 190.62 313.43 192.81 C 314.11 196.83 312.66 203.06 307.56 202.62 C 307.23 203.24 306.57 204.50 306.24 205.12 C 305.74 204.26 305.26 203.40 304.80 202.53 C 304.54 203.18 304.29 203.84 304.04 204.49 C 300.97 204.56 298.00 204.26 295.86 201.83 C 294.78 202.40 293.66 202.91 292.54 203.42 C 292.48 202.90 292.35 201.86 292.29 201.34 C 286.65 201.38 281.00 201.31 275.37 201.68 C 275.82 200.54 276.29 199.41 276.79 198.29 C 275.62 199.22 274.43 200.11 273.23 201.00 C 272.89 199.90 272.42 198.88 271.82 197.94 C 270.55 196.97 269.24 196.05 267.91 195.17 C 267.60 194.96 266.96 194.55 266.64 194.35 C 268.20 191.59 270.79 189.35 271.41 186.13 C 271.67 183.75 274.10 182.31 276.34 182.39 Z"
     id="path16" />
  <path
     fill="#f8fbf5"
     d=" M 415.13 378.23 C 419.31 380.31 423.43 382.88 426.31 386.63 C 436.42 403.52 446.51 420.44 456.69 437.30 C 458.20 439.96 460.57 442.54 460.35 445.81 C 459.92 450.73 456.69 455.71 451.93 457.34 C 442.61 457.74 433.25 457.06 423.93 457.78 C 411.62 457.92 399.31 457.77 387.00 457.85 C 370.69 458.73 354.33 457.54 338.04 458.57 C 326.69 458.58 315.35 458.56 304.01 458.57 C 287.35 459.50 270.65 458.39 253.99 459.26 C 242.65 459.28 231.30 459.24 219.96 459.28 C 203.33 460.23 186.64 459.05 170.01 460.01 C 159.66 460.01 149.30 459.97 138.94 460.03 C 130.65 461.44 123.39 450.11 128.29 443.27 C 138.60 425.43 149.96 408.23 160.58 390.58 C 163.22 386.11 167.30 382.69 171.79 380.19 C 174.38 387.58 175.94 395.38 179.78 402.29 C 183.52 408.93 187.98 415.24 193.43 420.60 C 199.76 427.05 208.16 430.76 215.96 435.08 C 223.02 438.93 230.85 441.41 238.92 441.77 C 261.27 442.53 283.64 441.98 306.00 442.15 C 317.01 442.42 327.98 441.14 338.98 441.45 C 349.98 440.75 361.34 440.13 371.53 435.50 C 377.13 432.85 383.22 431.03 388.19 427.20 C 392.93 423.63 397.46 419.79 402.02 415.99 C 406.77 411.48 409.67 405.34 411.17 399.03 C 413.29 392.27 414.25 385.24 415.13 378.23 Z"
     id="path20" />
  <path
     fill="#f8fbf5"
     d=" M 256.04 505.84 C 262.14 505.79 268.24 505.79 274.35 505.86 C 274.16 508.52 274.11 511.20 274.14 513.88 C 281.97 515.54 290.02 515.72 297.99 515.60 C 303.56 515.36 309.22 515.27 314.59 513.60 C 314.83 511.00 315.01 508.39 315.08 505.79 C 321.03 505.78 326.98 505.90 332.93 505.77 C 333.59 513.22 332.45 521.45 327.00 527.02 C 322.58 530.99 316.53 532.17 310.82 532.94 C 298.43 534.25 285.87 534.22 273.54 532.28 C 267.99 531.32 261.96 529.15 258.96 524.02 C 255.29 518.71 255.72 511.97 256.04 505.84 Z"
     id="path22" />
</svg>
